<svg xmlns="http://www.w3.org/2000/svg" viewBox="0 0 79 37.9" xml:space="preserve"><style>.st0{fill:#fff}</style><path class="st0" d="M14.3 37.5V30c0-.2.1-.3.3-.4h.1c.2 0 .4.2.6.5l1.9 3.7 1.9-3.7c.2-.3.4-.5.6-.5.2 0 .3.1.4.3v7.6c0 .1 0 .2-.1.2-.1.1-.2.1-.3.1-.1 0-.2 0-.2-.1-.1 0-.1-.1-.1-.2v-6.2l-1.8 3.5c-.2.2-.3.2-.4.2-.1 0-.2-.1-.3-.2l-1.8-3.5v6.3c0 .1 0 .2-.1.2-.1.1-.2.1-.2.1-.1 0-.2 0-.3-.1-.1-.1-.2-.2-.2-.3zM24 37.5V30c0-.2.1-.3.4-.3s.4.1.4.3v7.6c0 .1 0 .2-.1.2-.1.1-.2.1-.2.1-.1 0-.2 0-.3-.1-.2-.1-.2-.2-.2-.3zM28.6 37.5V30c0-.1 0-.2.1-.2s.2-.1.2-.1h4c.2 0 .3.1.3.3 0 .1 0 .2-.1.2 0 .1-.1.1-.2.1h-3.6v3H31c.1 0 .2 0 .2.1.1.1.1.1.1.2 0 .2-.1.3-.3.3h-1.7V37h3.6c.1 0 .2 0 .2.1s.1.2.1.2c0 .2-.1.3-.3.3H29c-.1 0-.2 0-.2-.1-.1.2-.2.1-.2 0zM35.9 36c0-.2.1-.4.4-.4s.4.1.4.3c0 .4.1.7.4 1 .3.3.7.4 1.2.4.4 0 .9-.1 1.2-.4.3-.4.4-.8.4-1.3v-5.2h-1.6c-.1 0-.2 0-.2-.1-.1-.1-.1-.2-.1-.2 0-.1 0-.2.1-.2 0-.1.1-.1.2-.1h2c.2 0 .3.1.3.3v5.5c.1.7-.2 1.3-.6 1.8-.5.4-1.1.6-1.7.6-.6 0-1.2-.2-1.7-.5-.5-.5-.7-1-.7-1.5zM43.9 36.7c0-.1 0-.2.1-.3.1-.1.1-.1.2-.1s.1 0 .2.2l.3.3c.2.1.3.3.5.3.3.1.6.1.8.1.4 0 .9-.1 1.2-.4.3-.3.5-.7.4-1.1 0-.3-.1-.6-.2-.8-.1-.2-.3-.4-.5-.5-.2-.1-.5-.3-.7-.4l-.8-.3c-.2-.1-.5-.2-.7-.4-.2-.2-.4-.4-.5-.6-.1-.3-.2-.6-.2-.9 0-.3.1-.7.2-1 .1-.3.3-.5.6-.6.2-.1.5-.2.8-.3.3-.1.5-.1.8-.1.4 0 .9.1 1.3.2s.6.3.6.5c0 .1 0 .2-.1.3 0 .1-.1.1-.2.1s-.2-.1-.2-.1c-.2-.1-.3-.1-.5-.2-.3-.1-.5-.1-.8-.1-.4 0-.8.1-1.2.3-.3.2-.5.6-.5 1 0 .3.1.6.3.8.2.2.4.4.7.5l.9.3c.3.1.6.3.9.4.3.2.5.4.7.7.2.4.3.8.3 1.2 0 .6-.2 1.3-.6 1.7-.5.4-1.1.6-1.7.6-.6 0-1.1-.1-1.6-.4-.5-.4-.8-.6-.8-.9zM52 35.5v-3.4c-.1-.7.2-1.3.6-1.8 1-.7 2.4-.7 3.4 0 .4.3.6.8.6 1.3 0 .1 0 .2-.1.4-.1.1-.2.1-.3.1-.2 0-.4-.1-.4-.3v-.3c0-.1-.1-.2-.1-.4l-.3-.3c-.1-.1-.3-.2-.5-.2-.2-.1-.4-.1-.7-.1-1.1 0-1.6.6-1.6 1.7v3.4c-.1.8.4 1.6 1.2 1.7h.4c.3 0 .5 0 .8-.1.2-.1.3-.2.5-.4.1-.1.1-.3.2-.4 0-.1.1-.3.1-.5s.1-.3.4-.3c.1 0 .2 0 .3.1.1.1.1.2.1.4 0 .5-.3 1-.7 1.3-.5.4-1.1.6-1.7.5-.6 0-1.2-.2-1.7-.6-.3-.5-.6-1.1-.5-1.8zM60.1 37.5V30c0-.1 0-.2.1-.2s.1-.1.2-.1h4c.2 0 .3.1.3.3 0 .1 0 .2-.1.2 0 .1-.1.1-.2.1h-3.5v3h1.7c.1 0 .2 0 .2.1s.1.1.1.2c0 .2-.1.3-.3.3h-1.7V37h3.6c.1 0 .2 0 .2.1.1.1.1.2.1.2 0 .2-.1.3-.3.3h-4c-.1 0-.2 0-.2-.1-.2.2-.2.1-.2 0zM1.9 7C.8 7 0 7.9 0 8.9s.9 1.9 1.9 1.9c1 0 1.9-.8 1.9-1.9C3.8 7.8 2.9 7 1.9 7zM.6 14.4c-.1.1-.3.3-.3 1.2-.1 1.7.7 3.4 2 4.5 1.3 1 3 1.6 4.7 1.7h1.8c1.6-.1 3.1-.7 4.4-1.7 1.3-1.1 2.1-2.8 2-4.5 0-.8-.1-1.1-.3-1.2s-.4-.2-1.1-.2c-1.4 0-1.5.6-1.5.8-.1 3.4-2.1 4.2-3.3 4.4-.3 0-.6.1-.9.1h-.4c-1.9 0-4.3-.8-4.4-4.6 0-.1-.1-.7-1.5-.7-.9-.1-1.2.1-1.2.2zM15.3 9.3V1.7c0-.8-.7-1.5-1.5-1.5H6.2C5.4.1 4.6.6 4.5 1.5c-.1.8.5 1.6 1.4 1.7H12.3v6.1c.1.8.8 1.4 1.7 1.3.6-.1 1.2-.6 1.3-1.3zM36.3.2H25.4c-.4 0-.7.1-1 .3-.2.1-.3.3-.3.5v19.8c0 .2.1.4.3.5.3.2.6.3 1 .3h10.9c.2 0 .4-.1.5-.3.2-.3.3-.6.2-1 0-.4-.1-.7-.3-1-.1-.2-.3-.3-.5-.3h-9.1v-7.1h5.1c.2 0 .4-.1.5-.3.2-.2.2-.5.2-.8 0-.3-.1-.6-.2-.8-.1-.2-.3-.3-.5-.3h-5.1v-7h9.1c.2 0 .4-.1.5-.3.2-.3.3-.6.3-1 0-.3-.1-.7-.2-.9-.1-.2-.3-.4-.5-.3zM56.5 12.7c-.4-.8-1-1.5-1.7-2s-1.5-.9-2.3-1.3c-.8-.4-1.6-.8-2.3-1-.7-.3-1.4-.6-2-1.2-.6-.5-.9-1.2-.9-1.9 0-.8.4-1.6 1.1-2.1.8-.5 1.8-.8 2.8-.7 1 0 2 .2 2.9.6.4.2.9.4 1.3.5.3 0 .6-.2.7-.5.2-.4.4-.8.4-1.2 0-.4-.2-.7-.5-.9-.4-.3-.9-.5-1.4-.7-.6-.2-1.2-.3-1.8-.3-1.4-.2-2.8-.1-4.2.2-.8.2-1.5.6-2.2 1-.7.4-1.2 1-1.6 1.7-.4.8-.6 1.8-.6 2.7 0 .8.2 1.7.5 2.4.3.6.7 1.2 1.3 1.7.6.5 1.2.9 1.8 1.2.7.4 1.4.7 2 1s1.4.6 2 .9c.6.3 1.1.8 1.5 1.3.4.5.6 1.2.6 1.9 0 .9-.4 1.8-1.2 2.3-.8.5-1.7.8-2.7.8-.7 0-1.5-.1-2.1-.4-.5-.2-1.1-.5-1.5-.9-.3-.3-.6-.6-.9-.8-.2-.2-.4-.3-.6-.3-.1 0-.4 0-.8.5-.3.3-.4.7-.4 1.1 0 .8.6 1.5 1.8 2.2 1.5.8 3.1 1.2 4.7 1.1 1.8.1 3.6-.5 5-1.6 1.3-1.1 1.9-2.8 1.8-4.5.3-.8 0-1.9-.5-2.8zM78.7 2.4c.2-.3.3-.6.3-1s-.1-.7-.2-1c-.1-.2-.3-.3-.5-.3h-13c-.2 0-.4.1-.5.3-.2.3-.3.6-.3 1s.1.7.3 1c.1.2.3.3.5.3h5v18c0 .2.1.4.3.5.7.4 1.6.4 2.3 0 .3-.2.4-.4.4-.5v-18h4.9c.3 0 .4-.1.5-.3z"/></svg>