<svg xmlns="http://www.w3.org/2000/svg" viewBox="0 0 18.65 18.64"><defs><style>.a{fill:#4e4f53;}</style></defs><path class="a" d="M9.32,4.54a4.78,4.78,0,1,0,4.79,4.78A4.79,4.79,0,0,0,9.32,4.54Zm0,7.89a3.11,3.11,0,1,1,3.11-3.11A3.1,3.1,0,0,1,9.32,12.43Zm6.09-8.08a1.12,1.12,0,0,1-2.23,0A1.12,1.12,0,0,1,14.3,3.23h0a1.11,1.11,0,0,1,1.11,1.11Zm3.17,1.13a5.52,5.52,0,0,0-1.51-3.91,5.52,5.52,0,0,0-3.9-1.5C11.63,0,7,0,5.48.07a5.51,5.51,0,0,0-3.91,1.5A5.54,5.54,0,0,0,.07,5.48C0,7,0,11.63.07,13.17a5.49,5.49,0,0,0,1.5,3.9,5.61,5.61,0,0,0,3.91,1.51c1.54.08,6.15.08,7.69,0a5.48,5.48,0,0,0,3.9-1.51,5.5,5.5,0,0,0,1.51-3.9c.09-1.54.09-6.15,0-7.69Zm-2,9.34a3.14,3.14,0,0,1-1.77,1.77c-1.23.49-4.14.37-5.5.37s-4.27.11-5.49-.37a3.14,3.14,0,0,1-1.77-1.77c-.49-1.23-.38-4.14-.38-5.5s-.1-4.27.38-5.49A3.14,3.14,0,0,1,3.83,2.06c1.23-.49,4.14-.38,5.5-.38s4.27-.11,5.49.38a3.14,3.14,0,0,1,1.77,1.77C17.08,5.06,17,8,17,9.32S17.08,13.6,16.59,14.82Z"/></svg>