<svg xmlns="http://www.w3.org/2000/svg" viewBox="0 0 18.64 18.64"><defs><style>.a{fill:#4e4f53;}</style></defs><path class="a" d="M18.64,2V16.64a2,2,0,0,1-2,2H6.42a10.25,10.25,0,0,0,1.14-2.47c.13-.47.64-2.42.64-2.42a2.74,2.74,0,0,0,2.34,1.17c3.08,0,5.3-2.83,5.3-6.35A6,6,0,0,0,9.76,2.66H9.54c-4.41,0-6.74,3-6.74,6.18,0,1.5.8,3.36,2.07,4,.2.09.3,0,.34-.13l.29-1.16a.32.32,0,0,0-.08-.29,4.05,4.05,0,0,1-.76-2.33,4.42,4.42,0,0,1,4.4-4.44h.21a4,4,0,0,1,4.27,3.79v.37c0,2.76-1.39,4.67-3.21,4.67a1.49,1.49,0,0,1-1.56-1.41,1.27,1.27,0,0,1,.05-.43A22.21,22.21,0,0,0,9.66,8c0-2.2-3.14-1.9-3.14,1a3.58,3.58,0,0,0,.3,1.51c-1.31,5.53-1.5,5.6-1.23,8l.09,0H2a2,2,0,0,1-2-2V2A2,2,0,0,1,2,0H16.64A2,2,0,0,1,18.64,2Z"/></svg>