<svg xmlns="http://www.w3.org/2000/svg" viewBox="0 0 66.99 36.09"><defs><style>.a{fill:#d13239;}.b{opacity:0.2;}.c{fill:#222221;}</style></defs><path class="a" d="M3.11,11.19A3.12,3.12,0,1,0,6.23,14.3a3.12,3.12,0,0,0-3.12-3.11"/><path class="a" d="M22.89,11.19A3.12,3.12,0,1,0,26,14.3a3.12,3.12,0,0,0-3.11-3.11"/><path d="M1,23.35c-.18.15-.5.56-.5,2a9,9,0,0,0,3.4,7.48,13.54,13.54,0,0,0,7.63,2.77h.15l.4,0,.56,0h.58c.27,0,.61,0,1,0l.37,0a12.63,12.63,0,0,0,7.2-2.75,9.14,9.14,0,0,0,3.27-7.49c0-1.25-.25-1.76-.46-2a2.92,2.92,0,0,0-1.88-.4c-2.32,0-2.43.92-2.46,1.26-.22,5.57-3.51,7-5.46,7.27a9.45,9.45,0,0,1-1.52.12h-.51C9.57,31.6,5.7,30.28,5.44,24,5.41,23.79,5.31,23,3,23c-1.5,0-1.94.36-2,.4"/><path d="M34.51,23.5c-.19.16-.52.58-.52,2a9.22,9.22,0,0,0,3.48,7.66A13.83,13.83,0,0,0,45.29,36l.15,0h.42l.57,0H47c.28,0,.63,0,1.06-.05l.38,0a13,13,0,0,0,7.38-2.81,9.38,9.38,0,0,0,3.35-7.68c0-1.28-.25-1.8-.46-2a3,3,0,0,0-1.94-.42c-2.37,0-2.48.94-2.52,1.3-.22,5.7-3.59,7.11-5.58,7.44a10.09,10.09,0,0,1-1.57.12H46.6c-3.28,0-7.25-1.34-7.52-7.75,0-.24-.13-1.11-2.54-1.11C35,23.09,34.55,23.46,34.51,23.5Z"/><g class="b"><path class="c" d="M44.75,5.3a27.72,27.72,0,0,1-1.66,2.4,7.25,7.25,0,0,0-.67,6.48,6.85,6.85,0,0,0,5,4.17,4.82,4.82,0,0,1-2.3-6.63,36.2,36.2,0,0,1,2.26-3,7.08,7.08,0,0,0,1.13-3.31,4.32,4.32,0,0,0-1.22-3.67c-.89-.76-2.09-1-3-1.74A5.28,5.28,0,0,1,44.75,5.3Z"/><path class="c" d="M48.58,17.12a3.77,3.77,0,0,1-1.28-1.88,3.36,3.36,0,0,1,.6-2.17,20.16,20.16,0,0,1,1.21-1.93c.61-.87,1.31-1.86,1.08-2.89a3.57,3.57,0,0,1,.26,3.84c-.23.38-.52.72-.76,1.09A4.25,4.25,0,0,0,49,16a3.59,3.59,0,0,0,1.23,2.22C49.57,18.2,49,17.52,48.58,17.12Z"/></g><path class="a" d="M63.8,23.35A3.19,3.19,0,1,0,67,26.53,3.19,3.19,0,0,0,63.8,23.35Z"/></svg>