<svg xmlns="http://www.w3.org/2000/svg" viewBox="0 0 41 46.17"><defs><style>.a{fill:#d13239;}</style></defs><path d="M30.4,21.64c.15-.12.42-.47.42-1.65A7.54,7.54,0,0,0,28,13.72a11.37,11.37,0,0,0-6.4-2.33H21.1l-.47,0h-.48c-.23,0-.51,0-.87,0l-.31,0a10.63,10.63,0,0,0-6,2.31A7.66,7.66,0,0,0,10.18,20c0,1.05.21,1.48.39,1.65s.48.34,1.58.34c1.95,0,2-.77,2.06-1.06.19-4.67,2.95-5.83,4.58-6.09a7.55,7.55,0,0,1,1.28-.1h.43c2.68,0,5.93,1.1,6.15,6.34,0,.2.11.91,2.08.91,1.26,0,1.63-.3,1.67-.34"/><path d="M22.29,1.11a.81.81,0,0,0-.42-.76A2.54,2.54,0,0,0,20.54,0h-.1a2.42,2.42,0,0,0-1.3.36.78.78,0,0,0-.43.74v2h0V4.73h0v.11a.8.8,0,0,0,.43.74,2.61,2.61,0,0,0,1.3.36h.1a2.54,2.54,0,0,0,1.33-.35.81.81,0,0,0,.42-.75"/><path d="M36.24,9a.82.82,0,0,0,.23-.84A2.4,2.4,0,0,0,35.78,7l0,0h0s0,0,0,0a2.43,2.43,0,0,0-1.18-.66.81.81,0,0,0-.83.21L32.3,7.87h0l-.58.58L31.14,9h0l-.07.07a.78.78,0,0,0-.22.83,2.48,2.48,0,0,0,.66,1.17l0,.05h0l0,0a2.46,2.46,0,0,0,1.19.69.79.79,0,0,0,.83-.24"/><path d="M7.28,6.48a.83.83,0,0,0-.83-.24,2.64,2.64,0,0,0-1.19.69l0,0h0l0,0a2.55,2.55,0,0,0-.66,1.18A.79.79,0,0,0,4.75,9l1.4,1.41h0l.58.58.58.57h0l.08.08a.81.81,0,0,0,.82.22,2.54,2.54,0,0,0,1.18-.67l0,0v0h0A2.47,2.47,0,0,0,10.15,10a.8.8,0,0,0-.23-.83"/><path class="a" d="M39.89,23.77a.81.81,0,0,0,.76-.42A2.51,2.51,0,0,0,41,22v0s0,0,0-.06a2.45,2.45,0,0,0-.36-1.3.8.8,0,0,0-.74-.43H36.16a.82.82,0,0,0-.74.43,2.64,2.64,0,0,0-.36,1.3V22a2.51,2.51,0,0,0,.35,1.33.81.81,0,0,0,.75.42"/><path d="M4.84,23.77a.81.81,0,0,0,.75-.42A2.51,2.51,0,0,0,5.94,22v-.1a2.64,2.64,0,0,0-.36-1.3.82.82,0,0,0-.74-.43H1.11a.8.8,0,0,0-.74.43A2.45,2.45,0,0,0,0,21.92S0,22,0,22v0a2.51,2.51,0,0,0,.35,1.33.81.81,0,0,0,.76.42"/><path d="M24.35,44.34A3.63,3.63,0,0,0,24.12,43c-.12-.29-.28-.42-.5-.42H17.38c-.22,0-.38.13-.5.42a3.63,3.63,0,0,0-.23,1.33v0h0s0,0,0,.06a3.52,3.52,0,0,0,.23,1.3c.13.31.28.43.49.43h6.24c.21,0,.36-.12.49-.43a3.52,3.52,0,0,0,.23-1.3s0,0,0-.06h0Z"/><path d="M24.35,39a3.63,3.63,0,0,0-.23-1.33c-.12-.29-.28-.42-.5-.42H17.38c-.22,0-.38.13-.5.42A3.63,3.63,0,0,0,16.65,39v0h0s0,0,0,.06a3.52,3.52,0,0,0,.23,1.3c.13.31.28.43.49.43h6.24c.21,0,.36-.12.49-.43a3.52,3.52,0,0,0,.23-1.3s0,0,0-.06h0Z"/></svg>