<svg xmlns="http://www.w3.org/2000/svg" viewBox="0 0 42 51.47"><defs><style>.a{fill:#d13239;}</style></defs><path class="a" d="M30.31,30.57a6.85,6.85,0,1,0,0-9.68,6.86,6.86,0,0,0,0,9.68"/><path d="M1.61,21.88a5.5,5.5,0,0,0,0,7.78l21,21a2.45,2.45,0,0,0,2.54.67,7.71,7.71,0,0,0,3.61-2,1.49,1.49,0,0,0,.14-.12l0,0,.06-.06a7.56,7.56,0,0,0,2.11-3.64,2.46,2.46,0,0,0-.71-2.55L13.28,25.77,30.46,8.59a2.45,2.45,0,0,0,.66-2.54,7.62,7.62,0,0,0-2-3.61A1.71,1.71,0,0,1,29,2.3l0,0-.05-.06A7.69,7.69,0,0,0,25.23.09a2.48,2.48,0,0,0-2.55.72Z"/></svg>