<svg xmlns="http://www.w3.org/2000/svg" viewBox="0 0 42 51.47"><defs><style>.a{fill:#d13239;}</style></defs><path class="a" d="M11.69,20.89a6.85,6.85,0,1,0,0,9.68,6.86,6.86,0,0,0,0-9.68"/><path d="M40.39,29.58a5.5,5.5,0,0,0,0-7.78l-21-21A2.45,2.45,0,0,0,16.81.1a7.62,7.62,0,0,0-3.61,2l-.14.11,0,0-.06,0A7.59,7.59,0,0,0,10.86,6a2.46,2.46,0,0,0,.71,2.55L28.72,25.69,11.54,42.88a2.43,2.43,0,0,0-.66,2.53,7.53,7.53,0,0,0,2,3.61,1.71,1.71,0,0,0,.11.14s0,0,0,0l0,.07a7.59,7.59,0,0,0,3.65,2.11,2.48,2.48,0,0,0,2.55-.72Z"/></svg>