<svg xmlns="http://www.w3.org/2000/svg" viewBox="0 0 26 26.55"><defs><style>.a{fill:#d13239;}</style></defs><path d="M25.15.85a2.92,2.92,0,1,0,0,4.13,2.94,2.94,0,0,0,0-4.13"/><path d="M15,.85A2.92,2.92,0,1,0,15,5,2.94,2.94,0,0,0,15,.85"/><path d="M15,11.21a2.92,2.92,0,1,0,0,4.13,2.92,2.92,0,0,0,0-4.13"/><path d="M21,15.34a2.92,2.92,0,1,0,0-4.13,2.92,2.92,0,0,0,0,4.13"/><path d="M5,.85A2.92,2.92,0,1,0,5,5,2.94,2.94,0,0,0,5,.85"/><path d="M5,11.21a2.92,2.92,0,1,0,0,4.13,2.92,2.92,0,0,0,0-4.13"/><path d="M15,21.57a2.92,2.92,0,1,0,0,4.13,2.92,2.92,0,0,0,0-4.13"/><path class="a" d="M21,25.7a2.92,2.92,0,1,0,0-4.13,2.94,2.94,0,0,0,0,4.13"/><path d="M5,21.57A2.92,2.92,0,1,0,5,25.7a2.92,2.92,0,0,0,0-4.13"/></svg>