<svg xmlns="http://www.w3.org/2000/svg" viewBox="0 0 29 28.37"><defs><style>.a{fill:#d13239;}</style></defs><path d="M.5,25.51a2.35,2.35,0,0,0,2.35,2.35H15.54a1,1,0,0,0,1-.57,3.27,3.27,0,0,0,.48-1.7s0-.05,0-.08a0,0,0,0,1,0,0v0a3.24,3.24,0,0,0-.47-1.74,1.05,1.05,0,0,0-1-.55H5.19V12.8a1,1,0,0,0-.56-1,3.27,3.27,0,0,0-1.71-.48H2.79a3.2,3.2,0,0,0-1.73.46,1,1,0,0,0-.56,1Z"/><path d="M28.46,3A2.35,2.35,0,0,0,26.11.62H13.43a1.06,1.06,0,0,0-1,.57A3.17,3.17,0,0,0,12,2.89.22.22,0,0,0,12,3V3a3.21,3.21,0,0,0,.46,1.74,1.07,1.07,0,0,0,1,.55H23.77V15.68a1,1,0,0,0,.56,1,3.3,3.3,0,0,0,1.71.48h.13a3.24,3.24,0,0,0,1.74-.47,1.05,1.05,0,0,0,.55-1Z"/><path d="M14.5,11.3a2.89,2.89,0,1,0,2.88,2.88A2.88,2.88,0,0,0,14.5,11.3"/><path class="a" d="M26.12,22.6A2.89,2.89,0,1,0,29,25.49a2.9,2.9,0,0,0-2.88-2.89"/><path d="M2.88,0A2.89,2.89,0,1,0,5.77,2.88,2.88,2.88,0,0,0,2.88,0"/></svg>