<svg xmlns="http://www.w3.org/2000/svg" viewBox="0 0 36 32.24"><defs><style>.a{fill:#d13239;}</style></defs><path d="M18,32.24a2,2,0,0,1-.59-.09c-.79-.23-2.07-.89-7.38-5.78a55.45,55.45,0,0,1-6.42-6.63A15.2,15.2,0,0,1,0,10.51,9.9,9.9,0,0,1,3.4,2.89,11.14,11.14,0,0,1,11.12,0,9.33,9.33,0,0,1,18,2.62,9.33,9.33,0,0,1,24.88,0,11.14,11.14,0,0,1,32.6,2.89,9.9,9.9,0,0,1,36,10.51a14,14,0,0,1-2,6.91c-1.26,2.25-3.88,5.19-8,9-1.31,1.23-2.41,2.22-3.29,2.95C20.22,31.5,19.21,32,18.4,32.2A2.58,2.58,0,0,1,18,32.24ZM11.12,4.14A7,7,0,0,0,6.18,6a5.85,5.85,0,0,0-2,4.55,11.28,11.28,0,0,0,2.75,6.71,52.1,52.1,0,0,0,5.94,6.1A63.11,63.11,0,0,0,18,27.8c.4-.28,1-.76,2-1.59s1.9-1.66,3.16-2.84c4.69-4.31,6.52-6.71,7.23-8a10,10,0,0,0,1.44-4.88,5.89,5.89,0,0,0-2-4.56,7,7,0,0,0-4.94-1.81c-2.5,0-4.05.91-5,3a2.06,2.06,0,0,1-3.74,0C15.17,5.05,13.62,4.14,11.12,4.14Z"/><path class="a" d="M24.21,7.81a3.47,3.47,0,1,0,3.47,3.47,3.47,3.47,0,0,0-3.47-3.47"/></svg>