<svg xmlns="http://www.w3.org/2000/svg" viewBox="0 0 26 24.44"><defs><style>.a{fill:#d13239;}</style></defs><path class="a" d="M3.11,0A3.11,3.11,0,1,0,6.23,3.11,3.12,3.12,0,0,0,3.11,0"/><path class="a" d="M22.89,0A3.11,3.11,0,1,0,26,3.11,3.12,3.12,0,0,0,22.89,0"/><path d="M1,12.16c-.18.15-.5.56-.5,2a9,9,0,0,0,3.4,7.48,13.61,13.61,0,0,0,7.63,2.77h.15l.4,0,.56,0h.58c.27,0,.61,0,1,0l.37,0a12.63,12.63,0,0,0,7.2-2.75,9.17,9.17,0,0,0,3.27-7.49c0-1.25-.25-1.76-.46-2a2.92,2.92,0,0,0-1.88-.4c-2.32,0-2.43.91-2.46,1.26-.22,5.57-3.51,7-5.46,7.27a9.46,9.46,0,0,1-1.52.11h-.51c-3.21,0-7.08-1.31-7.34-7.56,0-.24-.13-1.08-2.48-1.08-1.5,0-1.94.36-2,.4"/></svg>