<?xml version="1.0" encoding="utf-8"?>
<!-- Generator: Adobe Illustrator 24.0.3, SVG Export Plug-In . SVG Version: 6.00 Build 0)  -->
<svg version="1.1" id="Layer_1" xmlns="http://www.w3.org/2000/svg" xmlns:xlink="http://www.w3.org/1999/xlink" x="0px" y="0px"
	 viewBox="0 0 30 30" style="enable-background:new 0 0 30 30;" xml:space="preserve">
<path d="M17.4,6.8c-1.3-1.2-3.2-1.2-4.5,0L0.5,19.2c-0.4,0.4-0.6,0.9-0.4,1.5c0.2,0.8,0.6,1.5,1.2,2.1l0,0l0,0l0,0
	c0.6,0.6,1.4,1,2.2,1.2C4,24.2,4.6,24,5,23.6L15,13.5l10.1,10.1c0.4,0.4,0.9,0.6,1.5,0.4c0.8-0.2,1.6-0.6,2.2-1.2l0,0l0,0l0,0
	c0.6-0.6,1-1.3,1.2-2.1c0.2-0.5,0-1.1-0.4-1.5L17.4,6.8z"/>
</svg>
