<svg xmlns="http://www.w3.org/2000/svg" viewBox="0 0 44 69.91"><defs><style>.a{fill:#222221;}</style></defs><polygon class="a" points="41.17 0 24.99 0 27.98 3.17 27.98 3.53 22.04 11.98 16.1 3.53 16.1 3.17 19.09 0 2.85 0 2.85 38.33 41.17 38.33 41.17 0"/><path class="a" d="M5.92,49.63V46.19a2.45,2.45,0,0,0-2.46-2.43H0V53H2.56A3.34,3.34,0,0,0,5.92,49.63Zm-4.87-5H3.5a1.38,1.38,0,0,1,1.36,1.38v3.69A2.26,2.26,0,0,1,2.63,52H1.05Z"/><rect class="a" x="7.07" y="43.76" width="1.05" height="9.2"/><path class="a" d="M14.77,53h1.1L13,43.76H11.93L9,53h1.11L11,50.2h2.92Zm-3.5-3.68,1.18-3.81,1.17,3.81Z"/><polygon class="a" points="23.5 52.96 23.5 43.76 22.38 43.76 20.14 47.65 17.91 43.76 16.79 43.76 16.79 52.96 17.84 52.96 17.84 45.73 20.14 49.67 22.45 45.73 22.45 52.96 23.5 52.96"/><polygon class="a" points="24.78 52.96 30.17 52.96 30.17 52.04 25.83 52.04 25.83 47.87 29.64 47.87 29.64 46.94 25.83 46.94 25.83 44.68 30.17 44.68 30.17 43.76 24.78 43.76 24.78 52.96"/><polygon class="a" points="37.09 52.96 37.09 43.76 36.04 43.76 36.04 50.86 32.26 43.76 31.17 43.76 31.17 52.96 32.22 52.96 32.22 45.86 36.01 52.96 37.09 52.96"/><polygon class="a" points="38.09 43.76 38.09 44.68 40.52 44.68 40.52 52.96 41.57 52.96 41.57 44.68 44 44.68 44 43.76 38.09 43.76"/><rect class="a" x="31.22" y="64.1" width="12.76" height="0.59"/><rect class="a" x="0.1" y="64.1" width="12.76" height="0.59"/><path class="a" d="M.86,58.85a1.09,1.09,0,0,1,1.08-1.11h.44a.54.54,0,0,1,.53.55v3.65H3.7V58.85a1.11,1.11,0,0,1,1.1-1.11h.41a.55.55,0,0,1,.54.55v3.65h.78V58.38a1.31,1.31,0,0,0-1.32-1.32H4.8a1.72,1.72,0,0,0-1.3.58,1.42,1.42,0,0,0-1.12-.58H1.94a1.46,1.46,0,0,0-1.08.44l-.29-.44H.08v4.88H.86Z"/><path class="a" d="M9.93,59.68A1.39,1.39,0,0,0,11,58.38a1.34,1.34,0,0,0-1.37-1.32H8.75a1.34,1.34,0,0,0-1.37,1.32v1.68a1.87,1.87,0,0,0,1.88,1.88H10.8v-.68H9.26a1.11,1.11,0,0,1-1.1-1.11v0Zm-1.77-1.3a.62.62,0,0,1,.59-.64h.88a.63.63,0,0,1,.59.64.59.59,0,0,1-.46.61l-1.6.39Z"/><path class="a" d="M15.42,60.06V58.38a1.31,1.31,0,0,0-1.33-1.32h-1.5v-2H11.8v6.84h1.73A1.88,1.88,0,0,0,15.42,60.06Zm-.78.09a1.11,1.11,0,0,1-1.11,1.11h-.94V57.74h1.5a.55.55,0,0,1,.55.55Z"/><rect class="a" x="16.29" y="55.1" width="0.78" height="6.84"/><path class="a" d="M18.92,59.32a1.41,1.41,0,0,0-1.07,1.29,1.3,1.3,0,0,0,1.32,1.33h2.29V58.37a1.3,1.3,0,0,0-1.32-1.31h-1.9v.68h1.9a.54.54,0,0,1,.54.54v.62Zm1.76,1.94H19.17a.59.59,0,0,1-.54-.65.62.62,0,0,1,.46-.62l1.59-.39Z"/><path class="a" d="M24.25,57.74h1.17v-.68H24.25a1.4,1.4,0,0,0-1.07.44l-.3-.44h-.49v4.88h.79V58.82A1.08,1.08,0,0,1,24.25,57.74Z"/><path class="a" d="M28.59,59.33,27.28,59a.61.61,0,0,1-.45-.61.62.62,0,0,1,.59-.64h1.95v-.68H27.42a1.33,1.33,0,0,0-1.37,1.32,1.35,1.35,0,0,0,1.07,1.29l1.27.32a.61.61,0,0,1,.49.63.62.62,0,0,1-.58.64H26.14v.68H28.3a1.33,1.33,0,0,0,1.36-1.32A1.37,1.37,0,0,0,28.59,59.33Z"/><path class="a" d="M32.41,61.94v-.68h-.58a.61.61,0,0,1-.59-.63V57.74h1.17v-.68H31.24v-2h-.78v5.53a1.32,1.32,0,0,0,1.37,1.31Z"/><polygon class="a" points="35.32 61.94 36.43 58.44 37.57 61.94 38.35 61.94 39.91 57.06 39.09 57.06 37.96 60.72 36.82 57.06 36.06 57.06 34.93 60.72 33.79 57.06 32.97 57.06 34.54 61.94 35.32 61.94"/><path class="a" d="M41.4,59.32a1.41,1.41,0,0,0-1.07,1.29,1.3,1.3,0,0,0,1.32,1.33H44V58.37a1.3,1.3,0,0,0-1.32-1.31H40.72v.68h1.91a.54.54,0,0,1,.53.54v.62Zm1.76,1.94H41.65a.6.6,0,0,1-.54-.65.63.63,0,0,1,.46-.62l1.59-.39Z"/><path class="a" d="M16.32,67.05l1.16-.25a1.38,1.38,0,0,0,1.08-1.33,1.36,1.36,0,0,0-1.36-1.36h-2v.58h2a.79.79,0,0,1,.78.78.76.76,0,0,1-.58.75l-1.17.25a1.73,1.73,0,0,0-1.32,1.65v1.79h3.56v-.58h-2.9V68.12A1.1,1.1,0,0,1,16.32,67.05Z"/><path class="a" d="M21.35,64.11h-.68a1.53,1.53,0,0,0-1.53,1.52V68.4a1.53,1.53,0,0,0,1.53,1.51h.68a1.52,1.52,0,0,0,1.52-1.51V65.63A1.52,1.52,0,0,0,21.35,64.11Zm.86,4.36a.87.87,0,0,1-.86.86h-.68a.87.87,0,0,1-.87-.86V65.55a.88.88,0,0,1,.87-.86h.68a.87.87,0,0,1,.86.86Z"/><polygon class="a" points="27.84 64.69 28.51 64.69 28.51 69.91 29.17 69.91 29.17 64.11 27.84 64.11 27.84 64.69"/><path class="a" d="M24.94,67.05l1.16-.25a1.38,1.38,0,0,0,1.08-1.33,1.36,1.36,0,0,0-1.36-1.36h-2v.58h2a.79.79,0,0,1,.78.78.76.76,0,0,1-.58.75l-1.16.25a1.73,1.73,0,0,0-1.33,1.65v1.79H27v-.58H24.11V68.12A1.1,1.1,0,0,1,24.94,67.05Z"/></svg>