<svg xmlns="http://www.w3.org/2000/svg" viewBox="0 0 19.06 13.19"><path d="M18.91,1.61,14,6.64a.08.08,0,0,0,0,.12h0l3.45,3.68a.6.6,0,0,1,0,.84.61.61,0,0,1-.85,0L13.15,7.62a.12.12,0,0,0-.14,0h0l-.83.85a3.71,3.71,0,0,1-5.32,0l-.81-.82a.1.1,0,0,0-.13,0h0L2.48,11.28a.59.59,0,0,1-.84-.84L5.09,6.77a.1.1,0,0,0,0-.13l-4.93-5a.11.11,0,0,0-.13,0,.09.09,0,0,0,0,.07V11.73a1.46,1.46,0,0,0,1.47,1.46H17.6a1.46,1.46,0,0,0,1.46-1.46v-10A.09.09,0,0,0,19,1.59Z"/><path d="M9.53,8.39a2.48,2.48,0,0,0,1.79-.76L18.51.32a1.4,1.4,0,0,0-.9-.32H1.46a1.4,1.4,0,0,0-.9.32L7.75,7.64A2.47,2.47,0,0,0,9.53,8.39Z"/></svg>