<svg xmlns="http://www.w3.org/2000/svg" viewBox="0 0 17.61 17.6"><path d="M17.1,13.78A14.86,14.86,0,0,0,14,11.72c-.92-.45-1.26-.44-1.92,0s-.9.76-1.52.63A9.3,9.3,0,0,1,7.5,10.11,9.17,9.17,0,0,1,5.23,7c-.13-.63.24-1,.63-1.52s.48-1,0-1.92A14,14,0,0,0,3.82.51C3.15-.17,3,0,2.62.11A6.86,6.86,0,0,0,1.52.7,3.29,3.29,0,0,0,.21,2.08c-.26.57-.56,1.62,1,4.36a24,24,0,0,0,4.27,5.7h0a24.56,24.56,0,0,0,5.7,4.27c2.74,1.54,3.79,1.23,4.35,1a3.17,3.17,0,0,0,1.4-1.31,6.06,6.06,0,0,0,.58-1.1C17.62,14.61,17.78,14.46,17.1,13.78Z"/></svg>